<svg xmlns="http://www.w3.org/2000/svg" width="434.92" height="110.288" viewBox="0 0 434.92 110.288">
  <g id="Group_1" data-name="Group 1" transform="translate(-596 -429.712)">
    <g id="Group_1-2" data-name="Group 1" transform="translate(-556 633.712)">
      <g id="Group_12" data-name="Group 12" transform="translate(1089.23 -804)">
        <g id="Group_1-3" data-name="Group 1" transform="translate(-761.774 69.042)">
          <rect id="Rectangle_4" data-name="Rectangle 4" width="31.194" height="31.194" transform="translate(868.659 553.016) rotate(45)" fill="rgba(91,79,185,0.8)"/>
          <path id="Rectangle_11" data-name="Rectangle 11" d="M0,0H31.194V31.194H4a4,4,0,0,1-4-4Z" transform="translate(846.602 575.073) rotate(45)" fill="rgba(91,79,185,0.9)"/>
          <rect id="Rectangle_7" data-name="Rectangle 7" width="31.194" height="31.194" transform="translate(912.774 553.016) rotate(45)" fill="rgba(91,79,185,0.8)"/>
          <rect id="Rectangle_9" data-name="Rectangle 9" width="31.194" height="31.194" transform="translate(890.716 575.073) rotate(45)" fill="rgba(91,79,185,0.9)"/>
          <path id="Rectangle_13" data-name="Rectangle 13" d="M0,0H31.194V27.194a4,4,0,0,1-4,4H0Z" transform="translate(912.774 597.131) rotate(45)" fill="#5b4fb9"/>
          <path id="Rectangle_14" data-name="Rectangle 14" d="M0,0H31.194V27.194a4,4,0,0,1-4,4H0Z" transform="translate(868.659 597.131) rotate(45)" fill="#5b4fb9"/>
          <path id="Rectangle_15" data-name="Rectangle 15" d="M0,0H31.194V27.194a4,4,0,0,1-4,4H0Z" transform="translate(956.889 597.131) rotate(45)" fill="#5b4fb9"/>
          <rect id="Rectangle_10" data-name="Rectangle 10" width="31.194" height="31.194" transform="translate(934.831 575.073) rotate(45)" fill="rgba(91,79,185,0.9)"/>
          <path id="Rectangle_12" data-name="Rectangle 12" d="M0,0H27.194a4,4,0,0,1,4,4V31.194H0Z" transform="translate(978.946 575.073) rotate(45)" fill="rgba(91,79,185,0.9)"/>
          <rect id="Rectangle_8" data-name="Rectangle 8" width="31.194" height="31.194" transform="translate(956.889 553.016) rotate(45)" fill="rgba(91,79,185,0.8)"/>
          <path id="Rectangle_5" data-name="Rectangle 5" d="M3,0H31.194V31.194H0V3A3,3,0,0,1,3,0Z" transform="translate(890.716 530.958) rotate(45)" fill="rgba(91,79,185,0.7)"/>
          <path id="Rectangle_6" data-name="Rectangle 6" d="M3,0H31.194V31.194H0V3A3,3,0,0,1,3,0Z" transform="translate(934.831 530.958) rotate(45)" fill="rgba(91,79,185,0.7)"/>
        </g>
      </g>
    </g>
    <path id="Path_1" data-name="Path 1" d="M30.426-47.9v6.009h-18v12.018H27.618v6.037H12.427V-7.3H4.818V-47.9ZM46.459-36.556a15.788,15.788,0,0,1,5.854,1.039,12.623,12.623,0,0,1,4.479,2.948,13.051,13.051,0,0,1,2.864,4.661,17.73,17.73,0,0,1,1.011,6.149,17.817,17.817,0,0,1-1.011,6.177,13.339,13.339,0,0,1-2.864,4.689,12.442,12.442,0,0,1-4.479,2.976,15.788,15.788,0,0,1-5.854,1.039A15.9,15.9,0,0,1,40.59-7.916a12.554,12.554,0,0,1-4.507-2.976,13.4,13.4,0,0,1-2.892-4.689,17.6,17.6,0,0,1-1.025-6.177,17.51,17.51,0,0,1,1.025-6.149,13.108,13.108,0,0,1,2.892-4.661,12.738,12.738,0,0,1,4.507-2.948A15.9,15.9,0,0,1,46.459-36.556Zm0,24.344a6.1,6.1,0,0,0,5.321-2.415q1.727-2.415,1.727-7.076t-1.727-7.1a6.073,6.073,0,0,0-5.321-2.443,6.157,6.157,0,0,0-5.391,2.457q-1.741,2.457-1.741,7.09t1.741,7.062A6.184,6.184,0,0,0,46.459-12.212ZM66.086-7.3V-36.107h4.071a2.183,2.183,0,0,1,1.488.393,2.261,2.261,0,0,1,.562,1.348l.421,3.482A13.687,13.687,0,0,1,76.25-35.1a7.622,7.622,0,0,1,4.661-1.544,6.024,6.024,0,0,1,3.538.983l-.9,5.195a1.072,1.072,0,0,1-.365.716,1.235,1.235,0,0,1-.758.211,4.729,4.729,0,0,1-1.151-.2,7.705,7.705,0,0,0-1.937-.2,5.881,5.881,0,0,0-3.706,1.193,9.188,9.188,0,0,0-2.611,3.5V-7.3Zm32.4.449a7.577,7.577,0,0,1-5.756-2.12,8.137,8.137,0,0,1-2.022-5.854V-30.912H87.79a1.4,1.4,0,0,1-.969-.365,1.4,1.4,0,0,1-.407-1.1v-2.752l4.633-.758,1.46-7.862a1.389,1.389,0,0,1,.519-.87,1.647,1.647,0,0,1,1.025-.309h3.594v9.069h7.581v4.942H97.646V-15.3a3.06,3.06,0,0,0,.674,2.106,2.286,2.286,0,0,0,1.8.758,3.263,3.263,0,0,0,1.081-.154,5.95,5.95,0,0,0,.758-.323q.323-.168.576-.323a.962.962,0,0,1,.505-.154.794.794,0,0,1,.505.154,2.343,2.343,0,0,1,.421.463L106.042-9.4a10.5,10.5,0,0,1-3.482,1.909A12.959,12.959,0,0,1,98.488-6.849ZM120.979.62a2.68,2.68,0,0,1-.8,1.109,2.448,2.448,0,0,1-1.5.379h-5.166L118.9-9.432,107.249-36.107h6.065a1.9,1.9,0,0,1,1.292.393,2.582,2.582,0,0,1,.674.9l6.149,14.938a13.182,13.182,0,0,1,.533,1.516q.225.786.393,1.572.225-.814.491-1.572t.576-1.544l5.784-14.91a2.045,2.045,0,0,1,.744-.927,1.979,1.979,0,0,1,1.165-.365h5.56ZM166.72-47.9v6.009h-18v12.018h15.191v6.037H148.721V-7.3h-7.609V-47.9Zm12.916,11.793V-7.3H172.7V-36.107Zm1.039-8.4a3.952,3.952,0,0,1-.365,1.685,4.63,4.63,0,0,1-.969,1.376,4.63,4.63,0,0,1-1.418.941,4.351,4.351,0,0,1-1.741.351,4.183,4.183,0,0,1-1.7-.351,4.5,4.5,0,0,1-1.39-.941,4.548,4.548,0,0,1-.941-1.376A4.086,4.086,0,0,1,171.8-44.5a4.351,4.351,0,0,1,.351-1.741,4.456,4.456,0,0,1,.941-1.4,4.5,4.5,0,0,1,1.39-.941,4.183,4.183,0,0,1,1.7-.351,4.351,4.351,0,0,1,1.741.351,4.63,4.63,0,0,1,1.418.941,4.529,4.529,0,0,1,.969,1.4A4.207,4.207,0,0,1,180.675-44.5ZM201.9-7.3h-6.29L184.156-36.107h5.756a2.166,2.166,0,0,1,1.278.365,1.871,1.871,0,0,1,.716.927l5.56,15.387q.477,1.348.8,2.639t.576,2.583q.253-1.292.576-2.583a24.328,24.328,0,0,1,.828-2.639l5.7-15.387a1.9,1.9,0,0,1,.7-.927,2.007,2.007,0,0,1,1.207-.365h5.475Zm26.506-29.258a13.988,13.988,0,0,1,5.012.87,10.975,10.975,0,0,1,3.945,2.541,11.609,11.609,0,0,1,2.583,4.1,15.481,15.481,0,0,1,.927,5.546,10.038,10.038,0,0,1-.07,1.306,2.09,2.09,0,0,1-.253.814,1.023,1.023,0,0,1-.491.421,2.1,2.1,0,0,1-.786.126h-17.8q.309,4.436,2.387,6.514a7.439,7.439,0,0,0,5.5,2.078,9.532,9.532,0,0,0,2.906-.393,13.627,13.627,0,0,0,2.134-.87q.913-.477,1.6-.87a2.685,2.685,0,0,1,1.334-.393,1.5,1.5,0,0,1,.73.168,1.613,1.613,0,0,1,.533.477l2.022,2.527a11.559,11.559,0,0,1-2.583,2.26,14.487,14.487,0,0,1-2.99,1.46,16.344,16.344,0,0,1-3.173.772,22.718,22.718,0,0,1-3.131.225,15.39,15.39,0,0,1-5.588-1,12.508,12.508,0,0,1-4.493-2.948,13.833,13.833,0,0,1-3-4.83,18.69,18.69,0,0,1-1.1-6.669,15.947,15.947,0,0,1,.955-5.546,13.334,13.334,0,0,1,2.738-4.521,12.888,12.888,0,0,1,4.352-3.047A14.335,14.335,0,0,1,228.408-36.556Zm.14,4.97a6.413,6.413,0,0,0-4.745,1.713,8.449,8.449,0,0,0-2.19,4.858h13.029a8.642,8.642,0,0,0-.365-2.541,5.861,5.861,0,0,0-1.123-2.092,5.315,5.315,0,0,0-1.909-1.418A6.5,6.5,0,0,0,228.549-31.586Z" transform="translate(789 522)" stroke="#000" stroke-width="2"/>
  </g>
</svg>
